<svg width="82" height="82" viewBox="0 0 82 82" fill="none" xmlns="http://www.w3.org/2000/svg">
<rect x="40.9707" width="57.9411" height="57.9411" rx="12" transform="rotate(45 40.9707 0)" fill="#164EAF"/>
<path d="M33.9707 48.9707C33.4207 48.9707 32.9499 48.7749 32.5582 48.3832C32.1665 47.9915 31.9707 47.5207 31.9707 46.9707C31.9707 46.4207 32.1665 45.9499 32.5582 45.5582C32.9499 45.1665 33.4207 44.9707 33.9707 44.9707H47.9707C48.5207 44.9707 48.9915 45.1665 49.3832 45.5582C49.7749 45.9499 49.9707 46.4207 49.9707 46.9707C49.9707 47.5207 49.7749 47.9915 49.3832 48.3832C48.9915 48.7749 48.5207 48.9707 47.9707 48.9707H33.9707ZM33.9707 36.9707C33.4207 36.9707 32.9499 36.7749 32.5582 36.3832C32.1665 35.9915 31.9707 35.5207 31.9707 34.9707C31.9707 34.4207 32.1665 33.9499 32.5582 33.5582C32.9499 33.1665 33.4207 32.9707 33.9707 32.9707H47.9707C48.5207 32.9707 48.9915 33.1665 49.3832 33.5582C49.7749 33.9499 49.9707 34.4207 49.9707 34.9707C49.9707 35.5207 49.7749 35.9915 49.3832 36.3832C48.9915 36.7749 48.5207 36.9707 47.9707 36.9707H33.9707ZM33.9707 42.9707C33.4207 42.9707 32.9499 42.7749 32.5582 42.3832C32.1665 41.9915 31.9707 41.5207 31.9707 40.9707C31.9707 40.4207 32.1665 39.9499 32.5582 39.5582C32.9499 39.1665 33.4207 38.9707 33.9707 38.9707H47.9707C48.5207 38.9707 48.9915 39.1665 49.3832 39.5582C49.7749 39.9499 49.9707 40.4207 49.9707 40.9707C49.9707 41.5207 49.7749 41.9915 49.3832 42.3832C48.9915 42.7749 48.5207 42.9707 47.9707 42.9707H33.9707ZM34.9707 35.9707C35.254 35.9707 35.4915 35.8749 35.6832 35.6832C35.8749 35.4915 35.9707 35.254 35.9707 34.9707C35.9707 34.6874 35.8749 34.4499 35.6832 34.2582C35.4915 34.0665 35.254 33.9707 34.9707 33.9707C34.6874 33.9707 34.4499 34.0665 34.2582 34.2582C34.0665 34.4499 33.9707 34.6874 33.9707 34.9707C33.9707 35.254 34.0665 35.4915 34.2582 35.6832C34.4499 35.8749 34.6874 35.9707 34.9707 35.9707ZM34.9707 41.9707C35.254 41.9707 35.4915 41.8749 35.6832 41.6832C35.8749 41.4915 35.9707 41.254 35.9707 40.9707C35.9707 40.6874 35.8749 40.4499 35.6832 40.2582C35.4915 40.0665 35.254 39.9707 34.9707 39.9707C34.6874 39.9707 34.4499 40.0665 34.2582 40.2582C34.0665 40.4499 33.9707 40.6874 33.9707 40.9707C33.9707 41.254 34.0665 41.4915 34.2582 41.6832C34.4499 41.8749 34.6874 41.9707 34.9707 41.9707ZM34.9707 47.9707C35.254 47.9707 35.4915 47.8749 35.6832 47.6832C35.8749 47.4915 35.9707 47.254 35.9707 46.9707C35.9707 46.6874 35.8749 46.4499 35.6832 46.2582C35.4915 46.0665 35.254 45.9707 34.9707 45.9707C34.6874 45.9707 34.4499 46.0665 34.2582 46.2582C34.0665 46.4499 33.9707 46.6874 33.9707 46.9707C33.9707 47.254 34.0665 47.4915 34.2582 47.6832C34.4499 47.8749 34.6874 47.9707 34.9707 47.9707Z" fill="white"/>
</svg>
