<svg width="47" height="47" viewBox="0 0 47 47" fill="none" xmlns="http://www.w3.org/2000/svg">
<rect width="47" height="47" rx="11.75" fill="#FFC0A0"/>
<path d="M32.3123 29.375C32.5898 29.375 32.8223 29.2812 33.01 29.0935C33.1977 28.9058 33.2915 28.6733 33.2915 28.3958V18.6042C33.2915 18.3267 33.1977 18.0942 33.01 17.9065C32.8223 17.7188 32.5898 17.625 32.3123 17.625C32.0349 17.625 31.8024 17.7188 31.6147 17.9065C31.427 18.0942 31.3332 18.3267 31.3332 18.6042V28.3958C31.3332 28.6733 31.427 28.9058 31.6147 29.0935C31.8024 29.2812 32.0349 29.375 32.3123 29.375ZM17.4535 24.4792H28.3957C28.6731 24.4792 28.9057 24.3853 29.0933 24.1977C29.281 24.01 29.3748 23.7774 29.3748 23.5C29.3748 23.2226 29.281 22.99 29.0933 22.8023C28.9057 22.6147 28.6731 22.5208 28.3957 22.5208H17.4535L20.2686 19.6813C20.4481 19.5017 20.5419 19.2773 20.5501 19.0081C20.5583 18.7388 20.4644 18.5063 20.2686 18.3104C20.0891 18.1309 19.8606 18.0411 19.5832 18.0411C19.3057 18.0411 19.0773 18.1309 18.8978 18.3104L14.3936 22.8146C14.2957 22.9125 14.2263 23.0186 14.1855 23.1328C14.1447 23.247 14.1243 23.3694 14.1243 23.5C14.1243 23.6306 14.1447 23.753 14.1855 23.8672C14.2263 23.9814 14.2957 24.0875 14.3936 24.1854L18.8978 28.6896C19.0773 28.8691 19.3017 28.9589 19.5709 28.9589C19.8402 28.9589 20.0728 28.8691 20.2686 28.6896C20.4644 28.4938 20.5623 28.2612 20.5623 27.9919C20.5623 27.7227 20.4644 27.4901 20.2686 27.2943L17.4535 24.4792Z" fill="black"/>
</svg>
