<svg width="82" height="82" viewBox="0 0 82 82" fill="none" xmlns="http://www.w3.org/2000/svg">
<rect x="40.9707" width="57.9411" height="57.9411" rx="12" transform="rotate(45 40.9707 0)" fill="#FFE373"/>
<path d="M40.9707 42.9707C40.4207 42.9707 39.9499 42.7749 39.5582 42.3832C39.1665 41.9915 38.9707 41.5207 38.9707 40.9707C38.9707 40.4207 39.1665 39.9499 39.5582 39.5582C39.9499 39.1665 40.4207 38.9707 40.9707 38.9707C41.5207 38.9707 41.9915 39.1665 42.3832 39.5582C42.7749 39.9499 42.9707 40.4207 42.9707 40.9707C42.9707 41.5207 42.7749 41.9915 42.3832 42.3832C41.9915 42.7749 41.5207 42.9707 40.9707 42.9707ZM39.9707 35.9707V32.9707C39.9707 32.6874 40.0665 32.4499 40.2582 32.2582C40.4499 32.0665 40.6874 31.9707 40.9707 31.9707C41.254 31.9707 41.4915 32.0665 41.6832 32.2582C41.8749 32.4499 41.9707 32.6874 41.9707 32.9707V35.9707C41.9707 36.254 41.8749 36.4915 41.6832 36.6832C41.4915 36.8749 41.254 36.9707 40.9707 36.9707C40.6874 36.9707 40.4499 36.8749 40.2582 36.6832C40.0665 36.4915 39.9707 36.254 39.9707 35.9707ZM39.9707 48.9707V45.9707C39.9707 45.6874 40.0665 45.4499 40.2582 45.2582C40.4499 45.0665 40.6874 44.9707 40.9707 44.9707C41.254 44.9707 41.4915 45.0665 41.6832 45.2582C41.8749 45.4499 41.9707 45.6874 41.9707 45.9707V48.9707C41.9707 49.254 41.8749 49.4915 41.6832 49.6832C41.4915 49.8749 41.254 49.9707 40.9707 49.9707C40.6874 49.9707 40.4499 49.8749 40.2582 49.6832C40.0665 49.4915 39.9707 49.254 39.9707 48.9707ZM45.9707 39.9707H48.9707C49.254 39.9707 49.4915 40.0665 49.6832 40.2582C49.8749 40.4499 49.9707 40.6874 49.9707 40.9707C49.9707 41.254 49.8749 41.4915 49.6832 41.6832C49.4915 41.8749 49.254 41.9707 48.9707 41.9707H45.9707C45.6874 41.9707 45.4499 41.8749 45.2582 41.6832C45.0665 41.4915 44.9707 41.254 44.9707 40.9707C44.9707 40.6874 45.0665 40.4499 45.2582 40.2582C45.4499 40.0665 45.6874 39.9707 45.9707 39.9707ZM32.9707 39.9707H35.9707C36.254 39.9707 36.4915 40.0665 36.6832 40.2582C36.8749 40.4499 36.9707 40.6874 36.9707 40.9707C36.9707 41.254 36.8749 41.4915 36.6832 41.6832C36.4915 41.8749 36.254 41.9707 35.9707 41.9707H32.9707C32.6874 41.9707 32.4499 41.8749 32.2582 41.6832C32.0665 41.4915 31.9707 41.254 31.9707 40.9707C31.9707 40.6874 32.0665 40.4499 32.2582 40.2582C32.4499 40.0665 32.6874 39.9707 32.9707 39.9707Z" fill="black"/>
</svg>
