<svg width="48" height="48" viewBox="0 0 48 48" fill="none" xmlns="http://www.w3.org/2000/svg">
<rect width="48" height="48" rx="24" fill="#FFE373"/>
<path d="M16 32C15.45 32 14.9792 31.8042 14.5875 31.4125C14.1958 31.0208 14 30.55 14 30V28C14 27.7167 14.0958 27.4792 14.2875 27.2875C14.4792 27.0958 14.7167 27 15 27C15.2833 27 15.5208 27.0958 15.7125 27.2875C15.9042 27.4792 16 27.7167 16 28V30H32V18H16V20C16 20.2833 15.9042 20.5208 15.7125 20.7125C15.5208 20.9042 15.2833 21 15 21C14.7167 21 14.4792 20.9042 14.2875 20.7125C14.0958 20.5208 14 20.2833 14 20V18C14 17.45 14.1958 16.9792 14.5875 16.5875C14.9792 16.1958 15.45 16 16 16H32C32.55 16 33.0208 16.1958 33.4125 16.5875C33.8042 16.9792 34 17.45 34 18V30C34 30.55 33.8042 31.0208 33.4125 31.4125C33.0208 31.8042 32.55 32 32 32H16ZM24.175 25H15C14.7167 25 14.4792 24.9042 14.2875 24.7125C14.0958 24.5208 14 24.2833 14 24C14 23.7167 14.0958 23.4792 14.2875 23.2875C14.4792 23.0958 14.7167 23 15 23H24.175L22.8 21.65C22.6 21.4667 22.5042 21.2375 22.5125 20.9625C22.5208 20.6875 22.6167 20.45 22.8 20.25C23 20.05 23.2375 19.9458 23.5125 19.9375C23.7875 19.9292 24.025 20.025 24.225 20.225L27.3 23.3C27.5 23.5 27.6 23.7333 27.6 24C27.6 24.2667 27.5 24.5 27.3 24.7L24.225 27.775C24.025 27.975 23.7875 28.075 23.5125 28.075C23.2375 28.075 23 27.975 22.8 27.775C22.6167 27.575 22.5208 27.3375 22.5125 27.0625C22.5042 26.7875 22.6 26.55 22.8 26.35L24.175 25Z" fill="black"/>
</svg>
