<svg width="82" height="82" viewBox="0 0 82 82" fill="none" xmlns="http://www.w3.org/2000/svg">
<rect x="40.9707" width="57.9411" height="57.9411" rx="12" transform="rotate(45 40.9707 0)" fill="#A738D6"/>
<path d="M37.9707 42.9707V38.9707C37.9707 38.6874 38.0665 38.4499 38.2582 38.2582C38.4499 38.0665 38.6874 37.9707 38.9707 37.9707H42.9707C43.254 37.9707 43.4915 38.0665 43.6832 38.2582C43.8749 38.4499 43.9707 38.6874 43.9707 38.9707V42.9707C43.9707 43.254 43.8749 43.4915 43.6832 43.6832C43.4915 43.8749 43.254 43.9707 42.9707 43.9707H38.9707C38.6874 43.9707 38.4499 43.8749 38.2582 43.6832C38.0665 43.4915 37.9707 43.254 37.9707 42.9707ZM39.9707 41.9707H41.9707V39.9707H39.9707V41.9707ZM37.9707 48.9707V47.9707H35.9707C35.4207 47.9707 34.9499 47.7749 34.5582 47.3832C34.1665 46.9915 33.9707 46.5207 33.9707 45.9707V43.9707H32.9707C32.6874 43.9707 32.4499 43.8749 32.2582 43.6832C32.0665 43.4915 31.9707 43.254 31.9707 42.9707C31.9707 42.6874 32.0665 42.4499 32.2582 42.2582C32.4499 42.0665 32.6874 41.9707 32.9707 41.9707H33.9707V39.9707H32.9707C32.6874 39.9707 32.4499 39.8749 32.2582 39.6832C32.0665 39.4915 31.9707 39.254 31.9707 38.9707C31.9707 38.6874 32.0665 38.4499 32.2582 38.2582C32.4499 38.0665 32.6874 37.9707 32.9707 37.9707H33.9707V35.9707C33.9707 35.4207 34.1665 34.9499 34.5582 34.5582C34.9499 34.1665 35.4207 33.9707 35.9707 33.9707H37.9707V32.9707C37.9707 32.6874 38.0665 32.4499 38.2582 32.2582C38.4499 32.0665 38.6874 31.9707 38.9707 31.9707C39.254 31.9707 39.4915 32.0665 39.6832 32.2582C39.8749 32.4499 39.9707 32.6874 39.9707 32.9707V33.9707H41.9707V32.9707C41.9707 32.6874 42.0665 32.4499 42.2582 32.2582C42.4499 32.0665 42.6874 31.9707 42.9707 31.9707C43.254 31.9707 43.4915 32.0665 43.6832 32.2582C43.8749 32.4499 43.9707 32.6874 43.9707 32.9707V33.9707H45.9707C46.5207 33.9707 46.9915 34.1665 47.3832 34.5582C47.7749 34.9499 47.9707 35.4207 47.9707 35.9707V37.9707H48.9707C49.254 37.9707 49.4915 38.0665 49.6832 38.2582C49.8749 38.4499 49.9707 38.6874 49.9707 38.9707C49.9707 39.254 49.8749 39.4915 49.6832 39.6832C49.4915 39.8749 49.254 39.9707 48.9707 39.9707H47.9707V41.9707H48.9707C49.254 41.9707 49.4915 42.0665 49.6832 42.2582C49.8749 42.4499 49.9707 42.6874 49.9707 42.9707C49.9707 43.254 49.8749 43.4915 49.6832 43.6832C49.4915 43.8749 49.254 43.9707 48.9707 43.9707H47.9707V45.9707C47.9707 46.5207 47.7749 46.9915 47.3832 47.3832C46.9915 47.7749 46.5207 47.9707 45.9707 47.9707H43.9707V48.9707C43.9707 49.254 43.8749 49.4915 43.6832 49.6832C43.4915 49.8749 43.254 49.9707 42.9707 49.9707C42.6874 49.9707 42.4499 49.8749 42.2582 49.6832C42.0665 49.4915 41.9707 49.254 41.9707 48.9707V47.9707H39.9707V48.9707C39.9707 49.254 39.8749 49.4915 39.6832 49.6832C39.4915 49.8749 39.254 49.9707 38.9707 49.9707C38.6874 49.9707 38.4499 49.8749 38.2582 49.6832C38.0665 49.4915 37.9707 49.254 37.9707 48.9707ZM45.9707 45.9707V35.9707H35.9707V45.9707H45.9707Z" fill="white"/>
</svg>
