<svg width="48" height="48" viewBox="0 0 48 48" fill="none" xmlns="http://www.w3.org/2000/svg">
<rect width="48" height="48" rx="24" fill="#FFE373"/>
<path d="M17 33C16.45 33 15.9792 32.8042 15.5875 32.4125C15.1958 32.0208 15 31.55 15 31V17C15 16.45 15.1958 15.9792 15.5875 15.5875C15.9792 15.1958 16.45 15 17 15H31C31.55 15 32.0208 15.1958 32.4125 15.5875C32.8042 15.9792 33 16.45 33 17V18C33 18.2833 32.9042 18.5208 32.7125 18.7125C32.5208 18.9042 32.2833 19 32 19C31.7167 19 31.4792 18.9042 31.2875 18.7125C31.0958 18.5208 31 18.2833 31 18V17H17V31H31V30C31 29.7167 31.0958 29.4792 31.2875 29.2875C31.4792 29.0958 31.7167 29 32 29C32.2833 29 32.5208 29.0958 32.7125 29.2875C32.9042 29.4792 33 29.7167 33 30V31C33 31.55 32.8042 32.0208 32.4125 32.4125C32.0208 32.8042 31.55 33 31 33H17ZM30.175 25H22C21.7167 25 21.4792 24.9042 21.2875 24.7125C21.0958 24.5208 21 24.2833 21 24C21 23.7167 21.0958 23.4792 21.2875 23.2875C21.4792 23.0958 21.7167 23 22 23H30.175L28.3 21.1C28.1167 20.9167 28.0208 20.6875 28.0125 20.4125C28.0042 20.1375 28.1 19.9 28.3 19.7C28.4833 19.5167 28.7167 19.425 29 19.425C29.2833 19.425 29.5167 19.5167 29.7 19.7L33.3 23.3C33.4 23.4 33.4708 23.5083 33.5125 23.625C33.5542 23.7417 33.575 23.8667 33.575 24C33.575 24.1333 33.5542 24.2583 33.5125 24.375C33.4708 24.4917 33.4 24.6 33.3 24.7L29.7 28.3C29.5167 28.4833 29.2875 28.5792 29.0125 28.5875C28.7375 28.5958 28.5 28.5 28.3 28.3C28.1167 28.1167 28.025 27.8833 28.025 27.6C28.025 27.3167 28.1167 27.0833 28.3 26.9L30.175 25Z" fill="black"/>
</svg>
