<svg width="48" height="48" viewBox="0 0 48 48" fill="none" xmlns="http://www.w3.org/2000/svg">
<rect width="48" height="48" rx="24" fill="#FFFA98"/>
<path d="M17.2 28L19.85 15.75C19.9 15.5167 20.0125 15.3333 20.1875 15.2C20.3625 15.0667 20.5667 15 20.8 15H21.225C21.4583 15 21.6625 15.0708 21.8375 15.2125C22.0125 15.3542 22.125 15.5417 22.175 15.775L25.05 29.3L26.825 21.75C26.875 21.5333 26.9875 21.3542 27.1625 21.2125C27.3375 21.0708 27.5417 21 27.775 21H28.25C28.4833 21 28.6833 21.0667 28.85 21.2C29.0167 21.3333 29.125 21.5083 29.175 21.725L30.8 28H33C33.2833 28 33.5208 28.0958 33.7125 28.2875C33.9042 28.4792 34 28.7167 34 29C34 29.2833 33.9042 29.5208 33.7125 29.7125C33.5208 29.9042 33.2833 30 33 30H30.025C29.7917 30 29.5875 29.9333 29.4125 29.8C29.2375 29.6667 29.1167 29.4833 29.05 29.25L28.05 25.3L26.175 33.25C26.125 33.4833 26.0125 33.6667 25.8375 33.8C25.6625 33.9333 25.4583 34 25.225 34H24.8C24.5667 34 24.3583 33.9292 24.175 33.7875C23.9917 33.6458 23.875 33.4583 23.825 33.225L21 19.95L18.975 29.225C18.925 29.4583 18.8083 29.6458 18.625 29.7875C18.4417 29.9292 18.2333 30 18 30H15C14.7167 30 14.4792 29.9042 14.2875 29.7125C14.0958 29.5208 14 29.2833 14 29C14 28.7167 14.0958 28.4792 14.2875 28.2875C14.4792 28.0958 14.7167 28 15 28H17.2Z" fill="black"/>
</svg>
