<svg width="48" height="48" viewBox="0 0 48 48" fill="none" xmlns="http://www.w3.org/2000/svg">
<rect width="48" height="48" rx="24" fill="#A8FF88"/>
<path d="M17 33C16.45 33 15.9792 32.8042 15.5875 32.4125C15.1958 32.0208 15 31.55 15 31V17C15 16.45 15.1958 15.9792 15.5875 15.5875C15.9792 15.1958 16.45 15 17 15H31C31.55 15 32.0208 15.1958 32.4125 15.5875C32.8042 15.9792 33 16.45 33 17V24C33 24.2833 32.9042 24.5208 32.7125 24.7125C32.5208 24.9042 32.2833 25 32 25C31.7167 25 31.4792 24.9042 31.2875 24.7125C31.0958 24.5208 31 24.2833 31 24V17H17V31H23C23.2833 31 23.5208 31.0958 23.7125 31.2875C23.9042 31.4792 24 31.7167 24 32C24 32.2833 23.9042 32.5208 23.7125 32.7125C23.5208 32.9042 23.2833 33 23 33H17ZM29.35 31.175L32.875 27.625C33.075 27.425 33.3125 27.325 33.5875 27.325C33.8625 27.325 34.1 27.425 34.3 27.625C34.5 27.825 34.6 28.0625 34.6 28.3375C34.6 28.6125 34.5 28.85 34.3 29.05L30.05 33.3C29.85 33.5 29.6125 33.6 29.3375 33.6C29.0625 33.6 28.825 33.5 28.625 33.3L26.5 31.175C26.3167 30.975 26.225 30.7375 26.225 30.4625C26.225 30.1875 26.325 29.95 26.525 29.75C26.725 29.55 26.9583 29.45 27.225 29.45C27.4917 29.45 27.725 29.55 27.925 29.75L29.35 31.175ZM20 25C20.2833 25 20.5208 24.9042 20.7125 24.7125C20.9042 24.5208 21 24.2833 21 24C21 23.7167 20.9042 23.4792 20.7125 23.2875C20.5208 23.0958 20.2833 23 20 23C19.7167 23 19.4792 23.0958 19.2875 23.2875C19.0958 23.4792 19 23.7167 19 24C19 24.2833 19.0958 24.5208 19.2875 24.7125C19.4792 24.9042 19.7167 25 20 25ZM20 21C20.2833 21 20.5208 20.9042 20.7125 20.7125C20.9042 20.5208 21 20.2833 21 20C21 19.7167 20.9042 19.4792 20.7125 19.2875C20.5208 19.0958 20.2833 19 20 19C19.7167 19 19.4792 19.0958 19.2875 19.2875C19.0958 19.4792 19 19.7167 19 20C19 20.2833 19.0958 20.5208 19.2875 20.7125C19.4792 20.9042 19.7167 21 20 21ZM28 25C28.2833 25 28.5208 24.9042 28.7125 24.7125C28.9042 24.5208 29 24.2833 29 24C29 23.7167 28.9042 23.4792 28.7125 23.2875C28.5208 23.0958 28.2833 23 28 23H24C23.7167 23 23.4792 23.0958 23.2875 23.2875C23.0958 23.4792 23 23.7167 23 24C23 24.2833 23.0958 24.5208 23.2875 24.7125C23.4792 24.9042 23.7167 25 24 25H28ZM28 21C28.2833 21 28.5208 20.9042 28.7125 20.7125C28.9042 20.5208 29 20.2833 29 20C29 19.7167 28.9042 19.4792 28.7125 19.2875C28.5208 19.0958 28.2833 19 28 19H24C23.7167 19 23.4792 19.0958 23.2875 19.2875C23.0958 19.4792 23 19.7167 23 20C23 20.2833 23.0958 20.5208 23.2875 20.7125C23.4792 20.9042 23.7167 21 24 21H28Z" fill="black"/>
</svg>
