<svg width="48" height="48" viewBox="0 0 48 48" fill="none" xmlns="http://www.w3.org/2000/svg">
<rect width="48" height="48" rx="24" fill="#FFE373"/>
<path d="M21.5 28C19.6833 28 18.1458 27.3708 16.8875 26.1125C15.6292 24.8542 15 23.3167 15 21.5C15 19.6833 15.6292 18.1458 16.8875 16.8875C18.1458 15.6292 19.6833 15 21.5 15C23.3167 15 24.8542 15.6292 26.1125 16.8875C27.3708 18.1458 28 19.6833 28 21.5C28 22.2333 27.8833 22.925 27.65 23.575C27.4167 24.225 27.1 24.8 26.7 25.3L32.3 30.9C32.4833 31.0833 32.575 31.3167 32.575 31.6C32.575 31.8833 32.4833 32.1167 32.3 32.3C32.1167 32.4833 31.8833 32.575 31.6 32.575C31.3167 32.575 31.0833 32.4833 30.9 32.3L25.3 26.7C24.8 27.1 24.225 27.4167 23.575 27.65C22.925 27.8833 22.2333 28 21.5 28ZM21.5 26C22.75 26 23.8125 25.5625 24.6875 24.6875C25.5625 23.8125 26 22.75 26 21.5C26 20.25 25.5625 19.1875 24.6875 18.3125C23.8125 17.4375 22.75 17 21.5 17C20.25 17 19.1875 17.4375 18.3125 18.3125C17.4375 19.1875 17 20.25 17 21.5C17 22.75 17.4375 23.8125 18.3125 24.6875C19.1875 25.5625 20.25 26 21.5 26Z" fill="black"/>
</svg>
