<svg width="47" height="48" viewBox="0 0 47 48" fill="none" xmlns="http://www.w3.org/2000/svg">
<rect y="0.5" width="47" height="47" rx="11.75" fill="#AEFFA0"/>
<path d="M14.6877 29.875C14.4102 29.875 14.1777 29.7812 13.99 29.5935C13.8023 29.4058 13.7085 29.1733 13.7085 28.8958V19.1042C13.7085 18.8267 13.8023 18.5942 13.99 18.4065C14.1777 18.2188 14.4102 18.125 14.6877 18.125C14.9651 18.125 15.1976 18.2188 15.3853 18.4065C15.573 18.5942 15.6668 18.8267 15.6668 19.1042V28.8958C15.6668 29.1733 15.573 29.4058 15.3853 29.5935C15.1976 29.7812 14.9651 29.875 14.6877 29.875ZM29.5465 24.9792H18.6043C18.3269 24.9792 18.0943 24.8853 17.9067 24.6977C17.719 24.51 17.6252 24.2774 17.6252 24C17.6252 23.7226 17.719 23.49 17.9067 23.3023C18.0943 23.1147 18.3269 23.0208 18.6043 23.0208H29.5465L26.7314 20.1813C26.5519 20.0017 26.4581 19.7773 26.4499 19.5081C26.4417 19.2388 26.5356 19.0063 26.7314 18.8104C26.9109 18.6309 27.1394 18.5411 27.4168 18.5411C27.6943 18.5411 27.9227 18.6309 28.1022 18.8104L32.6064 23.3146C32.7043 23.4125 32.7737 23.5186 32.8145 23.6328C32.8553 23.747 32.8757 23.8694 32.8757 24C32.8757 24.1306 32.8553 24.253 32.8145 24.3672C32.7737 24.4814 32.7043 24.5875 32.6064 24.6854L28.1022 29.1896C27.9227 29.3691 27.6983 29.4589 27.4291 29.4589C27.1598 29.4589 26.9272 29.3691 26.7314 29.1896C26.5356 28.9938 26.4377 28.7612 26.4377 28.4919C26.4377 28.2227 26.5356 27.9901 26.7314 27.7943L29.5465 24.9792Z" fill="black"/>
</svg>
