<svg width="48" height="48" viewBox="0 0 48 48" fill="none" xmlns="http://www.w3.org/2000/svg">
<rect width="48" height="48" rx="24" fill="#A738D6"/>
<path d="M29.8501 31.9496L25.4251 27.5246L27.5251 25.4246L31.9501 29.8496C32.2334 30.1329 32.3751 30.4829 32.3751 30.8996C32.3751 31.3163 32.2334 31.6663 31.9501 31.9496C31.6667 32.2329 31.3167 32.3746 30.9001 32.3746C30.4834 32.3746 30.1334 32.2329 29.8501 31.9496ZM16.0501 31.9496C15.7667 31.6663 15.6251 31.3163 15.6251 30.8996C15.6251 30.4829 15.7667 30.1329 16.0501 29.8496L21.9001 23.9996L20.2001 22.2996C20.0167 22.4829 19.7834 22.5746 19.5001 22.5746C19.2167 22.5746 18.9834 22.4829 18.8001 22.2996L18.2251 21.7246V23.9746C18.2251 24.2079 18.1251 24.3663 17.9251 24.4496C17.7251 24.5329 17.5417 24.4913 17.3751 24.3246L14.6501 21.5996C14.4834 21.4329 14.4417 21.2496 14.5251 21.0496C14.6084 20.8496 14.7667 20.7496 15.0001 20.7496H17.2501L16.7001 20.1996C16.5001 19.9996 16.4001 19.7663 16.4001 19.4996C16.4001 19.2329 16.5001 18.9996 16.7001 18.7996L19.5501 15.9496C19.8834 15.6163 20.2417 15.3746 20.6251 15.2246C21.0084 15.0746 21.4001 14.9996 21.8001 14.9996C22.1334 14.9996 22.4459 15.0496 22.7376 15.1496C23.0292 15.2496 23.3167 15.3996 23.6001 15.5996C23.7334 15.6829 23.8042 15.7996 23.8126 15.9496C23.8209 16.0996 23.7667 16.2329 23.6501 16.3496L21.7501 18.2496L22.3001 18.7996C22.4834 18.9829 22.5751 19.2163 22.5751 19.4996C22.5751 19.7829 22.4834 20.0163 22.3001 20.1996L24.0001 21.8996L26.2501 19.6496C26.1834 19.4663 26.1292 19.2746 26.0876 19.0746C26.0459 18.8746 26.0251 18.6746 26.0251 18.4746C26.0251 17.4913 26.3626 16.6621 27.0376 15.9871C27.7126 15.3121 28.5417 14.9746 29.5251 14.9746C29.6584 14.9746 29.7834 14.9788 29.9001 14.9871C30.0167 14.9954 30.1334 15.0163 30.2501 15.0496C30.4001 15.0996 30.4959 15.2038 30.5376 15.3621C30.5792 15.5204 30.5417 15.6579 30.4251 15.7746L28.8001 17.3996C28.7001 17.4996 28.6501 17.6163 28.6501 17.7496C28.6501 17.8829 28.7001 17.9996 28.8001 18.0996L29.9001 19.1996C30.0001 19.2996 30.1167 19.3496 30.2501 19.3496C30.3834 19.3496 30.5001 19.2996 30.6001 19.1996L32.2251 17.5746C32.3417 17.4579 32.4792 17.4163 32.6376 17.4496C32.7959 17.4829 32.9001 17.5829 32.9501 17.7496C32.9834 17.8663 33.0042 17.9829 33.0126 18.0996C33.0209 18.2163 33.0251 18.3413 33.0251 18.4746C33.0251 19.4579 32.6876 20.2871 32.0126 20.9621C31.3376 21.6371 30.5084 21.9746 29.5251 21.9746C29.3251 21.9746 29.1251 21.9579 28.9251 21.9246C28.7251 21.8913 28.5334 21.8329 28.3501 21.7496L18.1501 31.9496C17.8667 32.2329 17.5167 32.3746 17.1001 32.3746C16.6834 32.3746 16.3334 32.2329 16.0501 31.9496Z" fill="white"/>
</svg>
